<?xml version="1.0" standalone="no"?>
<!DOCTYPE svg PUBLIC "-//W3C//DTD SVG 20010904//EN"
 "http://www.w3.org/TR/2001/REC-SVG-20010904/DTD/svg10.dtd">
<svg version="1.0" xmlns="http://www.w3.org/2000/svg"
 width="700.000000pt" height="700.000000pt" viewBox="0 0 700.000000 700.000000"
 preserveAspectRatio="xMidYMid meet">

<g transform="translate(0.000000,700.000000) scale(0.100000,-0.100000)"
fill="#000000" stroke="none">
<path d="M3450 6008 c-35 -10 -237 -96 -730 -310 -151 -66 -390 -169 -530
-230 -140 -61 -268 -116 -285 -123 -16 -8 -149 -65 -295 -128 -1326 -574
-1494 -648 -1528 -673 -45 -35 -82 -112 -82 -171 0 -80 50 -157 124 -193 55
-26 79 -18 121 42 21 28 50 55 70 64 18 7 105 22 192 33 87 11 228 29 313 40
173 23 367 48 663 86 108 14 286 37 395 51 108 14 265 34 347 44 248 32 678
88 885 115 428 56 448 56 520 4 49 -36 90 -114 90 -174 0 -82 -65 -174 -143
-204 -15 -6 -117 -22 -225 -36 -108 -14 -249 -33 -312 -41 -63 -8 -185 -23
-270 -34 -85 -11 -227 -29 -315 -40 -309 -40 -540 -70 -845 -109 -85 -11 -227
-30 -315 -41 -88 -12 -209 -27 -270 -35 -294 -38 -327 -44 -346 -61 -19 -17
-19 -47 -19 -1269 l0 -1252 23 -44 c28 -52 84 -94 149 -111 90 -23 197 33 239
126 18 39 19 93 19 1223 0 673 4 1184 9 1187 10 6 88 -26 496 -204 154 -67
395 -171 535 -232 140 -61 269 -116 285 -123 17 -8 156 -68 310 -135 154 -66
289 -125 300 -130 128 -58 399 -171 433 -180 58 -15 85 -6 347 107 121 52 353
153 515 223 162 70 431 187 597 259 167 72 439 190 605 262 417 181 774 335
1093 474 149 64 285 129 304 143 106 85 107 249 1 333 -19 15 -154 79 -300
142 -286 124 -721 313 -1135 492 -536 232 -879 381 -1165 505 -657 285 -737
319 -775 329 -46 13 -48 13 -95 -1z"/>
<path d="M1336 3127 l-26 -26 0 -431 c0 -390 2 -441 20 -528 23 -116 56 -202
110 -294 238 -399 771 -698 1450 -812 540 -91 1152 -55 1627 95 561 177 956
478 1105 842 61 148 68 220 68 698 l0 430 -25 24 c-13 14 -32 25 -41 25 -14 0
-286 -112 -449 -186 -16 -7 -156 -67 -310 -134 -154 -66 -289 -125 -300 -130
-11 -5 -146 -64 -300 -130 -154 -67 -293 -127 -310 -135 -260 -117 -353 -141
-506 -132 -94 6 -168 28 -314 93 -16 7 -156 67 -310 134 -154 67 -293 127
-310 135 -16 7 -147 63 -290 125 -143 62 -383 166 -534 232 -151 65 -286 122
-302 125 -21 4 -34 -1 -53 -20z"/>
</g>
</svg>
